%TF.GenerationSoftware,KiCad,Pcbnew,9.0.3*%
%TF.CreationDate,2026-06-16T19:13:46+10:00*%
%TF.ProjectId,Kicad - Acid Front Panel,4b696361-6420-42d2-9041-636964204672,rev?*%
%TF.SameCoordinates,Original*%
%TF.FileFunction,Profile,NP*%
%FSLAX46Y46*%
G04 Gerber Fmt 4.6, Leading zero omitted, Abs format (unit mm)*
G04 Created by KiCad (PCBNEW 9.0.3) date 2026-06-16 19:13:46*
%MOMM*%
%LPD*%
G01*
G04 APERTURE LIST*
%TA.AperFunction,Profile*%
%ADD10C,0.200000*%
%TD*%
G04 APERTURE END LIST*
D10*
X71503798Y-45403196D02*
G75*
G02*
X69303798Y-45403196I-1100000J0D01*
G01*
X69303798Y-45403196D02*
G75*
G02*
X71503798Y-45403196I1100000J0D01*
G01*
X147199615Y-89603196D02*
G75*
G02*
X144999615Y-89603196I-1100000J0D01*
G01*
X144999615Y-89603196D02*
G75*
G02*
X147199615Y-89603196I1100000J0D01*
G01*
X243209253Y-158325696D02*
X55209253Y-158325696D01*
X59309253Y-91825696D02*
G75*
G02*
X57109253Y-91825696I-1100000J0D01*
G01*
X57109253Y-91825696D02*
G75*
G02*
X59309253Y-91825696I1100000J0D01*
G01*
X241309253Y-28325696D02*
G75*
G02*
X239109253Y-28325696I-1100000J0D01*
G01*
X239109253Y-28325696D02*
G75*
G02*
X241309253Y-28325696I1100000J0D01*
G01*
X227275591Y-142937113D02*
X71775591Y-142937113D01*
X227275591Y-103437113D02*
X227275591Y-142937113D01*
X73010002Y-93003198D02*
X73010002Y-42003198D01*
X232121333Y-37603196D02*
G75*
G02*
X229921333Y-37603196I-1100000J0D01*
G01*
X229921333Y-37603196D02*
G75*
G02*
X232121333Y-37603196I1100000J0D01*
G01*
X150309253Y-37593196D02*
G75*
G02*
X148109253Y-37593196I-1100000J0D01*
G01*
X148109253Y-37593196D02*
G75*
G02*
X150309253Y-37593196I1100000J0D01*
G01*
X191850000Y-49540000D02*
G75*
G02*
X184350000Y-49540000I-3750000J0D01*
G01*
X184350000Y-49540000D02*
G75*
G02*
X191850000Y-49540000I3750000J0D01*
G01*
X73010002Y-42003198D02*
X143510002Y-42003198D01*
X243209253Y-25325696D02*
X243209253Y-158325696D01*
X55209253Y-25325696D02*
X243209253Y-25325696D01*
X147199034Y-45393196D02*
G75*
G02*
X144999034Y-45393196I-1100000J0D01*
G01*
X144999034Y-45393196D02*
G75*
G02*
X147199034Y-45393196I1100000J0D01*
G01*
X220800000Y-78042902D02*
G75*
G02*
X213300000Y-78042902I-3750000J0D01*
G01*
X213300000Y-78042902D02*
G75*
G02*
X220800000Y-78042902I3750000J0D01*
G01*
X210260000Y-49529339D02*
G75*
G02*
X204060000Y-49529339I-3100000J0D01*
G01*
X204060000Y-49529339D02*
G75*
G02*
X210260000Y-49529339I3100000J0D01*
G01*
X143510002Y-42003198D02*
X143510002Y-93003198D01*
X223882470Y-49523196D02*
G75*
G02*
X218682470Y-49523196I-2600000J0D01*
G01*
X218682470Y-49523196D02*
G75*
G02*
X223882470Y-49523196I2600000J0D01*
G01*
X162890000Y-78024098D02*
G75*
G02*
X155390000Y-78024098I-3750000J0D01*
G01*
X155390000Y-78024098D02*
G75*
G02*
X162890000Y-78024098I3750000J0D01*
G01*
X143510002Y-93003198D02*
X73010002Y-93003198D01*
X59309253Y-155325696D02*
G75*
G02*
X57109253Y-155325696I-1100000J0D01*
G01*
X57109253Y-155325696D02*
G75*
G02*
X59309253Y-155325696I1100000J0D01*
G01*
X157470000Y-49523159D02*
G75*
G02*
X152270000Y-49523159I-2600000J0D01*
G01*
X152270000Y-49523159D02*
G75*
G02*
X157470000Y-49523159I2600000J0D01*
G01*
X150309253Y-28325696D02*
G75*
G02*
X148109253Y-28325696I-1100000J0D01*
G01*
X148109253Y-28325696D02*
G75*
G02*
X150309253Y-28325696I1100000J0D01*
G01*
X241309253Y-155325696D02*
G75*
G02*
X239109253Y-155325696I-1100000J0D01*
G01*
X239109253Y-155325696D02*
G75*
G02*
X241309253Y-155325696I1100000J0D01*
G01*
X150355011Y-155325696D02*
G75*
G02*
X148155011Y-155325696I-1100000J0D01*
G01*
X148155011Y-155325696D02*
G75*
G02*
X150355011Y-155325696I1100000J0D01*
G01*
X232136827Y-146043196D02*
G75*
G02*
X229936827Y-146043196I-1100000J0D01*
G01*
X229936827Y-146043196D02*
G75*
G02*
X232136827Y-146043196I1100000J0D01*
G01*
X71775591Y-103437113D02*
X227275591Y-103437113D01*
X55209253Y-158325696D02*
X55209253Y-25325696D01*
X71500000Y-89600809D02*
G75*
G02*
X69300000Y-89600809I-1100000J0D01*
G01*
X69300000Y-89600809D02*
G75*
G02*
X71500000Y-89600809I1100000J0D01*
G01*
X69143171Y-146043196D02*
G75*
G02*
X66943171Y-146043196I-1100000J0D01*
G01*
X66943171Y-146043196D02*
G75*
G02*
X69143171Y-146043196I1100000J0D01*
G01*
X71775591Y-142937113D02*
X71775591Y-103437113D01*
X191840000Y-78034044D02*
G75*
G02*
X184340000Y-78034044I-3750000J0D01*
G01*
X184340000Y-78034044D02*
G75*
G02*
X191840000Y-78034044I3750000J0D01*
G01*
X59309253Y-28325696D02*
G75*
G02*
X57109253Y-28325696I-1100000J0D01*
G01*
X57109253Y-28325696D02*
G75*
G02*
X59309253Y-28325696I1100000J0D01*
G01*
X69106387Y-37613196D02*
G75*
G02*
X66906387Y-37613196I-1100000J0D01*
G01*
X66906387Y-37613196D02*
G75*
G02*
X69106387Y-37613196I1100000J0D01*
G01*
X241309253Y-91825696D02*
G75*
G02*
X239109253Y-91825696I-1100000J0D01*
G01*
X239109253Y-91825696D02*
G75*
G02*
X241309253Y-91825696I1100000J0D01*
G01*
X172120000Y-49535418D02*
G75*
G02*
X165920000Y-49535418I-3100000J0D01*
G01*
X165920000Y-49535418D02*
G75*
G02*
X172120000Y-49535418I3100000J0D01*
G01*
X150355011Y-146043196D02*
G75*
G02*
X148155011Y-146043196I-1100000J0D01*
G01*
X148155011Y-146043196D02*
G75*
G02*
X150355011Y-146043196I1100000J0D01*
G01*
M02*
