%TF.GenerationSoftware,KiCad,Pcbnew,9.0.3*%
%TF.CreationDate,2026-06-16T19:13:46+10:00*%
%TF.ProjectId,Kicad - Acid Front Panel,4b696361-6420-42d2-9041-636964204672,rev?*%
%TF.SameCoordinates,Original*%
%TF.FileFunction,Copper,L2,Bot*%
%TF.FilePolarity,Positive*%
%FSLAX46Y46*%
G04 Gerber Fmt 4.6, Leading zero omitted, Abs format (unit mm)*
G04 Created by KiCad (PCBNEW 9.0.3) date 2026-06-16 19:13:46*
%MOMM*%
%LPD*%
G01*
G04 APERTURE LIST*
G04 APERTURE END LIST*
%TA.AperFunction,NonConductor*%
G36*
X242651792Y-25845881D02*
G01*
X242697547Y-25898685D01*
X242708753Y-25950196D01*
X242708753Y-157701196D01*
X242689068Y-157768235D01*
X242636264Y-157813990D01*
X242584753Y-157825196D01*
X55833753Y-157825196D01*
X55766714Y-157805511D01*
X55720959Y-157752707D01*
X55709753Y-157701196D01*
X55709753Y-155199734D01*
X56608753Y-155199734D01*
X56608753Y-155451657D01*
X56648163Y-155700481D01*
X56726013Y-155940079D01*
X56840385Y-156164544D01*
X56988454Y-156368345D01*
X56988458Y-156368350D01*
X57166598Y-156546490D01*
X57166603Y-156546494D01*
X57344370Y-156675648D01*
X57370408Y-156694566D01*
X57513437Y-156767443D01*
X57594869Y-156808935D01*
X57594871Y-156808935D01*
X57594874Y-156808937D01*
X57834468Y-156886786D01*
X58083291Y-156926196D01*
X58083292Y-156926196D01*
X58335214Y-156926196D01*
X58335215Y-156926196D01*
X58584038Y-156886786D01*
X58823632Y-156808937D01*
X59048098Y-156694566D01*
X59251909Y-156546489D01*
X59430046Y-156368352D01*
X59578123Y-156164541D01*
X59692494Y-155940075D01*
X59770343Y-155700481D01*
X59809753Y-155451658D01*
X59809753Y-155199734D01*
X147654511Y-155199734D01*
X147654511Y-155451657D01*
X147693921Y-155700481D01*
X147771771Y-155940079D01*
X147886143Y-156164544D01*
X148034212Y-156368345D01*
X148034216Y-156368350D01*
X148212356Y-156546490D01*
X148212361Y-156546494D01*
X148390128Y-156675648D01*
X148416166Y-156694566D01*
X148559195Y-156767443D01*
X148640627Y-156808935D01*
X148640629Y-156808935D01*
X148640632Y-156808937D01*
X148880226Y-156886786D01*
X149129049Y-156926196D01*
X149129050Y-156926196D01*
X149380972Y-156926196D01*
X149380973Y-156926196D01*
X149629796Y-156886786D01*
X149869390Y-156808937D01*
X150093856Y-156694566D01*
X150297667Y-156546489D01*
X150475804Y-156368352D01*
X150623881Y-156164541D01*
X150738252Y-155940075D01*
X150816101Y-155700481D01*
X150855511Y-155451658D01*
X150855511Y-155199734D01*
X238608753Y-155199734D01*
X238608753Y-155451657D01*
X238648163Y-155700481D01*
X238726013Y-155940079D01*
X238840385Y-156164544D01*
X238988454Y-156368345D01*
X238988458Y-156368350D01*
X239166598Y-156546490D01*
X239166603Y-156546494D01*
X239344370Y-156675648D01*
X239370408Y-156694566D01*
X239513437Y-156767443D01*
X239594869Y-156808935D01*
X239594871Y-156808935D01*
X239594874Y-156808937D01*
X239834468Y-156886786D01*
X240083291Y-156926196D01*
X240083292Y-156926196D01*
X240335214Y-156926196D01*
X240335215Y-156926196D01*
X240584038Y-156886786D01*
X240823632Y-156808937D01*
X241048098Y-156694566D01*
X241251909Y-156546489D01*
X241430046Y-156368352D01*
X241578123Y-156164541D01*
X241692494Y-155940075D01*
X241770343Y-155700481D01*
X241809753Y-155451658D01*
X241809753Y-155199734D01*
X241770343Y-154950911D01*
X241692494Y-154711317D01*
X241692492Y-154711314D01*
X241692492Y-154711312D01*
X241651000Y-154629880D01*
X241578123Y-154486851D01*
X241559205Y-154460813D01*
X241430051Y-154283046D01*
X241430047Y-154283041D01*
X241251907Y-154104901D01*
X241251902Y-154104897D01*
X241048101Y-153956828D01*
X241048100Y-153956827D01*
X241048098Y-153956826D01*
X240978000Y-153921109D01*
X240823636Y-153842456D01*
X240584038Y-153764606D01*
X240335215Y-153725196D01*
X240083291Y-153725196D01*
X239958879Y-153744901D01*
X239834467Y-153764606D01*
X239594869Y-153842456D01*
X239370404Y-153956828D01*
X239166603Y-154104897D01*
X239166598Y-154104901D01*
X238988458Y-154283041D01*
X238988454Y-154283046D01*
X238840385Y-154486847D01*
X238726013Y-154711312D01*
X238648163Y-154950910D01*
X238608753Y-155199734D01*
X150855511Y-155199734D01*
X150816101Y-154950911D01*
X150738252Y-154711317D01*
X150738250Y-154711314D01*
X150738250Y-154711312D01*
X150696758Y-154629880D01*
X150623881Y-154486851D01*
X150604963Y-154460813D01*
X150475809Y-154283046D01*
X150475805Y-154283041D01*
X150297665Y-154104901D01*
X150297660Y-154104897D01*
X150093859Y-153956828D01*
X150093858Y-153956827D01*
X150093856Y-153956826D01*
X150023758Y-153921109D01*
X149869394Y-153842456D01*
X149629796Y-153764606D01*
X149380973Y-153725196D01*
X149129049Y-153725196D01*
X149004637Y-153744901D01*
X148880225Y-153764606D01*
X148640627Y-153842456D01*
X148416162Y-153956828D01*
X148212361Y-154104897D01*
X148212356Y-154104901D01*
X148034216Y-154283041D01*
X148034212Y-154283046D01*
X147886143Y-154486847D01*
X147771771Y-154711312D01*
X147693921Y-154950910D01*
X147654511Y-155199734D01*
X59809753Y-155199734D01*
X59770343Y-154950911D01*
X59692494Y-154711317D01*
X59692492Y-154711314D01*
X59692492Y-154711312D01*
X59651000Y-154629880D01*
X59578123Y-154486851D01*
X59559205Y-154460813D01*
X59430051Y-154283046D01*
X59430047Y-154283041D01*
X59251907Y-154104901D01*
X59251902Y-154104897D01*
X59048101Y-153956828D01*
X59048100Y-153956827D01*
X59048098Y-153956826D01*
X58978000Y-153921109D01*
X58823636Y-153842456D01*
X58584038Y-153764606D01*
X58335215Y-153725196D01*
X58083291Y-153725196D01*
X57958879Y-153744901D01*
X57834467Y-153764606D01*
X57594869Y-153842456D01*
X57370404Y-153956828D01*
X57166603Y-154104897D01*
X57166598Y-154104901D01*
X56988458Y-154283041D01*
X56988454Y-154283046D01*
X56840385Y-154486847D01*
X56726013Y-154711312D01*
X56648163Y-154950910D01*
X56608753Y-155199734D01*
X55709753Y-155199734D01*
X55709753Y-145917234D01*
X66442671Y-145917234D01*
X66442671Y-146169157D01*
X66482081Y-146417981D01*
X66559931Y-146657579D01*
X66674303Y-146882044D01*
X66822372Y-147085845D01*
X66822376Y-147085850D01*
X67000516Y-147263990D01*
X67000521Y-147263994D01*
X67178288Y-147393148D01*
X67204326Y-147412066D01*
X67347355Y-147484943D01*
X67428787Y-147526435D01*
X67428789Y-147526435D01*
X67428792Y-147526437D01*
X67668386Y-147604286D01*
X67917209Y-147643696D01*
X67917210Y-147643696D01*
X68169132Y-147643696D01*
X68169133Y-147643696D01*
X68417956Y-147604286D01*
X68657550Y-147526437D01*
X68882016Y-147412066D01*
X69085827Y-147263989D01*
X69263964Y-147085852D01*
X69412041Y-146882041D01*
X69526412Y-146657575D01*
X69604261Y-146417981D01*
X69643671Y-146169158D01*
X69643671Y-145917234D01*
X147654511Y-145917234D01*
X147654511Y-146169157D01*
X147693921Y-146417981D01*
X147771771Y-146657579D01*
X147886143Y-146882044D01*
X148034212Y-147085845D01*
X148034216Y-147085850D01*
X148212356Y-147263990D01*
X148212361Y-147263994D01*
X148390128Y-147393148D01*
X148416166Y-147412066D01*
X148559195Y-147484943D01*
X148640627Y-147526435D01*
X148640629Y-147526435D01*
X148640632Y-147526437D01*
X148880226Y-147604286D01*
X149129049Y-147643696D01*
X149129050Y-147643696D01*
X149380972Y-147643696D01*
X149380973Y-147643696D01*
X149629796Y-147604286D01*
X149869390Y-147526437D01*
X150093856Y-147412066D01*
X150297667Y-147263989D01*
X150475804Y-147085852D01*
X150623881Y-146882041D01*
X150738252Y-146657575D01*
X150816101Y-146417981D01*
X150855511Y-146169158D01*
X150855511Y-145917234D01*
X229436327Y-145917234D01*
X229436327Y-146169157D01*
X229475737Y-146417981D01*
X229553587Y-146657579D01*
X229667959Y-146882044D01*
X229816028Y-147085845D01*
X229816032Y-147085850D01*
X229994172Y-147263990D01*
X229994177Y-147263994D01*
X230171944Y-147393148D01*
X230197982Y-147412066D01*
X230341011Y-147484943D01*
X230422443Y-147526435D01*
X230422445Y-147526435D01*
X230422448Y-147526437D01*
X230662042Y-147604286D01*
X230910865Y-147643696D01*
X230910866Y-147643696D01*
X231162788Y-147643696D01*
X231162789Y-147643696D01*
X231411612Y-147604286D01*
X231651206Y-147526437D01*
X231875672Y-147412066D01*
X232079483Y-147263989D01*
X232257620Y-147085852D01*
X232405697Y-146882041D01*
X232520068Y-146657575D01*
X232597917Y-146417981D01*
X232637327Y-146169158D01*
X232637327Y-145917234D01*
X232597917Y-145668411D01*
X232520068Y-145428817D01*
X232520066Y-145428814D01*
X232520066Y-145428812D01*
X232478574Y-145347380D01*
X232405697Y-145204351D01*
X232386779Y-145178313D01*
X232257625Y-145000546D01*
X232257621Y-145000541D01*
X232079481Y-144822401D01*
X232079476Y-144822397D01*
X231875675Y-144674328D01*
X231875674Y-144674327D01*
X231875672Y-144674326D01*
X231805574Y-144638609D01*
X231651210Y-144559956D01*
X231411612Y-144482106D01*
X231162789Y-144442696D01*
X230910865Y-144442696D01*
X230786453Y-144462401D01*
X230662041Y-144482106D01*
X230422443Y-144559956D01*
X230197978Y-144674328D01*
X229994177Y-144822397D01*
X229994172Y-144822401D01*
X229816032Y-145000541D01*
X229816028Y-145000546D01*
X229667959Y-145204347D01*
X229553587Y-145428812D01*
X229475737Y-145668410D01*
X229436327Y-145917234D01*
X150855511Y-145917234D01*
X150816101Y-145668411D01*
X150738252Y-145428817D01*
X150738250Y-145428814D01*
X150738250Y-145428812D01*
X150696758Y-145347380D01*
X150623881Y-145204351D01*
X150604963Y-145178313D01*
X150475809Y-145000546D01*
X150475805Y-145000541D01*
X150297665Y-144822401D01*
X150297660Y-144822397D01*
X150093859Y-144674328D01*
X150093858Y-144674327D01*
X150093856Y-144674326D01*
X150023758Y-144638609D01*
X149869394Y-144559956D01*
X149629796Y-144482106D01*
X149380973Y-144442696D01*
X149129049Y-144442696D01*
X149004637Y-144462401D01*
X148880225Y-144482106D01*
X148640627Y-144559956D01*
X148416162Y-144674328D01*
X148212361Y-144822397D01*
X148212356Y-144822401D01*
X148034216Y-145000541D01*
X148034212Y-145000546D01*
X147886143Y-145204347D01*
X147771771Y-145428812D01*
X147693921Y-145668410D01*
X147654511Y-145917234D01*
X69643671Y-145917234D01*
X69604261Y-145668411D01*
X69526412Y-145428817D01*
X69526410Y-145428814D01*
X69526410Y-145428812D01*
X69484918Y-145347380D01*
X69412041Y-145204351D01*
X69393123Y-145178313D01*
X69263969Y-145000546D01*
X69263965Y-145000541D01*
X69085825Y-144822401D01*
X69085820Y-144822397D01*
X68882019Y-144674328D01*
X68882018Y-144674327D01*
X68882016Y-144674326D01*
X68811918Y-144638609D01*
X68657554Y-144559956D01*
X68417956Y-144482106D01*
X68169133Y-144442696D01*
X67917209Y-144442696D01*
X67792797Y-144462401D01*
X67668385Y-144482106D01*
X67428787Y-144559956D01*
X67204322Y-144674328D01*
X67000521Y-144822397D01*
X67000516Y-144822401D01*
X66822376Y-145000541D01*
X66822372Y-145000546D01*
X66674303Y-145204347D01*
X66559931Y-145428812D01*
X66482081Y-145668410D01*
X66442671Y-145917234D01*
X55709753Y-145917234D01*
X55709753Y-103371221D01*
X71275091Y-103371221D01*
X71275091Y-143003004D01*
X71309199Y-143130300D01*
X71342145Y-143187363D01*
X71375091Y-143244427D01*
X71468277Y-143337613D01*
X71582405Y-143403505D01*
X71709699Y-143437613D01*
X71709701Y-143437613D01*
X227341481Y-143437613D01*
X227341483Y-143437613D01*
X227468777Y-143403505D01*
X227582905Y-143337613D01*
X227676091Y-143244427D01*
X227741983Y-143130299D01*
X227776091Y-143003005D01*
X227776091Y-103371221D01*
X227741983Y-103243927D01*
X227676091Y-103129799D01*
X227582905Y-103036613D01*
X227525841Y-103003667D01*
X227468778Y-102970721D01*
X227405130Y-102953667D01*
X227341483Y-102936613D01*
X71841483Y-102936613D01*
X71709699Y-102936613D01*
X71582403Y-102970721D01*
X71468277Y-103036613D01*
X71468274Y-103036615D01*
X71375093Y-103129796D01*
X71375091Y-103129799D01*
X71309199Y-103243925D01*
X71275091Y-103371221D01*
X55709753Y-103371221D01*
X55709753Y-91699734D01*
X56608753Y-91699734D01*
X56608753Y-91951657D01*
X56648163Y-92200481D01*
X56726013Y-92440079D01*
X56840385Y-92664544D01*
X56988454Y-92868345D01*
X56988458Y-92868350D01*
X57166598Y-93046490D01*
X57166603Y-93046494D01*
X57344370Y-93175648D01*
X57370408Y-93194566D01*
X57513437Y-93267443D01*
X57594869Y-93308935D01*
X57594871Y-93308935D01*
X57594874Y-93308937D01*
X57834468Y-93386786D01*
X58083291Y-93426196D01*
X58083292Y-93426196D01*
X58335214Y-93426196D01*
X58335215Y-93426196D01*
X58584038Y-93386786D01*
X58823632Y-93308937D01*
X59048098Y-93194566D01*
X59251909Y-93046489D01*
X59430046Y-92868352D01*
X59578123Y-92664541D01*
X59692494Y-92440075D01*
X59770343Y-92200481D01*
X59809753Y-91951658D01*
X59809753Y-91699734D01*
X59770343Y-91450911D01*
X59692494Y-91211317D01*
X59692492Y-91211314D01*
X59692492Y-91211312D01*
X59651000Y-91129880D01*
X59578123Y-90986851D01*
X59459798Y-90823990D01*
X59430051Y-90783046D01*
X59430047Y-90783041D01*
X59251907Y-90604901D01*
X59251902Y-90604897D01*
X59048101Y-90456828D01*
X59048100Y-90456827D01*
X59048098Y-90456826D01*
X58978000Y-90421109D01*
X58823636Y-90342456D01*
X58584038Y-90264606D01*
X58335215Y-90225196D01*
X58083291Y-90225196D01*
X57958879Y-90244901D01*
X57834467Y-90264606D01*
X57594869Y-90342456D01*
X57370404Y-90456828D01*
X57166603Y-90604897D01*
X57166598Y-90604901D01*
X56988458Y-90783041D01*
X56988454Y-90783046D01*
X56840385Y-90986847D01*
X56726013Y-91211312D01*
X56648163Y-91450910D01*
X56608753Y-91699734D01*
X55709753Y-91699734D01*
X55709753Y-89474847D01*
X68799500Y-89474847D01*
X68799500Y-89726770D01*
X68838910Y-89975594D01*
X68916760Y-90215192D01*
X69031132Y-90439657D01*
X69179201Y-90643458D01*
X69179205Y-90643463D01*
X69357345Y-90821603D01*
X69357350Y-90821607D01*
X69535117Y-90950761D01*
X69561155Y-90969679D01*
X69704184Y-91042556D01*
X69785616Y-91084048D01*
X69785618Y-91084048D01*
X69785621Y-91084050D01*
X70025215Y-91161899D01*
X70274038Y-91201309D01*
X70274039Y-91201309D01*
X70525961Y-91201309D01*
X70525962Y-91201309D01*
X70774785Y-91161899D01*
X71014379Y-91084050D01*
X71238845Y-90969679D01*
X71442656Y-90821602D01*
X71620793Y-90643465D01*
X71768870Y-90439654D01*
X71883241Y-90215188D01*
X71961090Y-89975594D01*
X72000500Y-89726771D01*
X72000500Y-89474847D01*
X71961090Y-89226024D01*
X71883241Y-88986430D01*
X71883239Y-88986427D01*
X71883239Y-88986425D01*
X71841747Y-88904993D01*
X71768870Y-88761964D01*
X71622532Y-88560546D01*
X71620798Y-88558159D01*
X71620794Y-88558154D01*
X71442654Y-88380014D01*
X71442649Y-88380010D01*
X71238848Y-88231941D01*
X71238847Y-88231940D01*
X71238845Y-88231939D01*
X71168747Y-88196222D01*
X71014383Y-88117569D01*
X70774785Y-88039719D01*
X70525962Y-88000309D01*
X70274038Y-88000309D01*
X70149626Y-88020014D01*
X70025214Y-88039719D01*
X69785616Y-88117569D01*
X69561151Y-88231941D01*
X69357350Y-88380010D01*
X69357345Y-88380014D01*
X69179205Y-88558154D01*
X69179201Y-88558159D01*
X69031132Y-88761960D01*
X68916760Y-88986425D01*
X68838910Y-89226023D01*
X68799500Y-89474847D01*
X55709753Y-89474847D01*
X55709753Y-45277234D01*
X68803298Y-45277234D01*
X68803298Y-45529157D01*
X68842708Y-45777981D01*
X68920558Y-46017579D01*
X68983598Y-46141300D01*
X69029834Y-46232044D01*
X69034930Y-46242044D01*
X69182999Y-46445845D01*
X69183003Y-46445850D01*
X69361143Y-46623990D01*
X69361148Y-46623994D01*
X69418504Y-46665665D01*
X69564953Y-46772066D01*
X69707982Y-46844943D01*
X69789414Y-46886435D01*
X69789416Y-46886435D01*
X69789419Y-46886437D01*
X70029013Y-46964286D01*
X70277836Y-47003696D01*
X70277837Y-47003696D01*
X70529759Y-47003696D01*
X70529760Y-47003696D01*
X70778583Y-46964286D01*
X71018177Y-46886437D01*
X71242643Y-46772066D01*
X71446454Y-46623989D01*
X71624591Y-46445852D01*
X71772668Y-46242041D01*
X71887039Y-46017575D01*
X71964888Y-45777981D01*
X72004298Y-45529158D01*
X72004298Y-45277234D01*
X71964888Y-45028411D01*
X71887039Y-44788817D01*
X71887037Y-44788814D01*
X71887037Y-44788812D01*
X71845545Y-44707380D01*
X71772668Y-44564351D01*
X71753750Y-44538313D01*
X71624596Y-44360546D01*
X71624592Y-44360541D01*
X71446452Y-44182401D01*
X71446447Y-44182397D01*
X71242646Y-44034328D01*
X71242645Y-44034327D01*
X71242643Y-44034326D01*
X71172545Y-43998609D01*
X71018181Y-43919956D01*
X70778583Y-43842106D01*
X70715446Y-43832106D01*
X70529760Y-43802696D01*
X70277836Y-43802696D01*
X70153424Y-43822401D01*
X70029012Y-43842106D01*
X69789414Y-43919956D01*
X69564949Y-44034328D01*
X69361148Y-44182397D01*
X69361143Y-44182401D01*
X69183003Y-44360541D01*
X69182999Y-44360546D01*
X69034930Y-44564347D01*
X68920558Y-44788812D01*
X68842708Y-45028410D01*
X68803298Y-45277234D01*
X55709753Y-45277234D01*
X55709753Y-41937306D01*
X72509502Y-41937306D01*
X72509502Y-93069089D01*
X72543610Y-93196385D01*
X72576556Y-93253448D01*
X72609502Y-93310512D01*
X72702688Y-93403698D01*
X72816816Y-93469590D01*
X72944110Y-93503698D01*
X72944112Y-93503698D01*
X143575892Y-93503698D01*
X143575894Y-93503698D01*
X143703188Y-93469590D01*
X143817316Y-93403698D01*
X143910502Y-93310512D01*
X143976394Y-93196384D01*
X144010502Y-93069090D01*
X144010502Y-91699734D01*
X238608753Y-91699734D01*
X238608753Y-91951657D01*
X238648163Y-92200481D01*
X238726013Y-92440079D01*
X238840385Y-92664544D01*
X238988454Y-92868345D01*
X238988458Y-92868350D01*
X239166598Y-93046490D01*
X239166603Y-93046494D01*
X239344370Y-93175648D01*
X239370408Y-93194566D01*
X239513437Y-93267443D01*
X239594869Y-93308935D01*
X239594871Y-93308935D01*
X239594874Y-93308937D01*
X239834468Y-93386786D01*
X240083291Y-93426196D01*
X240083292Y-93426196D01*
X240335214Y-93426196D01*
X240335215Y-93426196D01*
X240584038Y-93386786D01*
X240823632Y-93308937D01*
X241048098Y-93194566D01*
X241251909Y-93046489D01*
X241430046Y-92868352D01*
X241578123Y-92664541D01*
X241692494Y-92440075D01*
X241770343Y-92200481D01*
X241809753Y-91951658D01*
X241809753Y-91699734D01*
X241770343Y-91450911D01*
X241692494Y-91211317D01*
X241692492Y-91211314D01*
X241692492Y-91211312D01*
X241651000Y-91129880D01*
X241578123Y-90986851D01*
X241459798Y-90823990D01*
X241430051Y-90783046D01*
X241430047Y-90783041D01*
X241251907Y-90604901D01*
X241251902Y-90604897D01*
X241048101Y-90456828D01*
X241048100Y-90456827D01*
X241048098Y-90456826D01*
X240978000Y-90421109D01*
X240823636Y-90342456D01*
X240584038Y-90264606D01*
X240335215Y-90225196D01*
X240083291Y-90225196D01*
X239958879Y-90244901D01*
X239834467Y-90264606D01*
X239594869Y-90342456D01*
X239370404Y-90456828D01*
X239166603Y-90604897D01*
X239166598Y-90604901D01*
X238988458Y-90783041D01*
X238988454Y-90783046D01*
X238840385Y-90986847D01*
X238726013Y-91211312D01*
X238648163Y-91450910D01*
X238608753Y-91699734D01*
X144010502Y-91699734D01*
X144010502Y-89477234D01*
X144499115Y-89477234D01*
X144499115Y-89729157D01*
X144538525Y-89977981D01*
X144616375Y-90217579D01*
X144640337Y-90264606D01*
X144729530Y-90439657D01*
X144730747Y-90442044D01*
X144878816Y-90645845D01*
X144878820Y-90645850D01*
X145056960Y-90823990D01*
X145056965Y-90823994D01*
X145234732Y-90953148D01*
X145260770Y-90972066D01*
X145403799Y-91044943D01*
X145485231Y-91086435D01*
X145485233Y-91086435D01*
X145485236Y-91086437D01*
X145724830Y-91164286D01*
X145973653Y-91203696D01*
X145973654Y-91203696D01*
X146225576Y-91203696D01*
X146225577Y-91203696D01*
X146474400Y-91164286D01*
X146713994Y-91086437D01*
X146938460Y-90972066D01*
X147142271Y-90823989D01*
X147320408Y-90645852D01*
X147468485Y-90442041D01*
X147582856Y-90217575D01*
X147660705Y-89977981D01*
X147700115Y-89729158D01*
X147700115Y-89477234D01*
X147660705Y-89228411D01*
X147582856Y-88988817D01*
X147582854Y-88988814D01*
X147582854Y-88988812D01*
X147541362Y-88907380D01*
X147468485Y-88764351D01*
X147449567Y-88738313D01*
X147320413Y-88560546D01*
X147320409Y-88560541D01*
X147142269Y-88382401D01*
X147142264Y-88382397D01*
X146938463Y-88234328D01*
X146938462Y-88234327D01*
X146938460Y-88234326D01*
X146868362Y-88198609D01*
X146713998Y-88119956D01*
X146474400Y-88042106D01*
X146459329Y-88039719D01*
X146225577Y-88002696D01*
X145973653Y-88002696D01*
X145849241Y-88022401D01*
X145724829Y-88042106D01*
X145485231Y-88119956D01*
X145260766Y-88234328D01*
X145056965Y-88382397D01*
X145056960Y-88382401D01*
X144878820Y-88560541D01*
X144878816Y-88560546D01*
X144730747Y-88764347D01*
X144616375Y-88988812D01*
X144538525Y-89228410D01*
X144499115Y-89477234D01*
X144010502Y-89477234D01*
X144010502Y-77838513D01*
X154889500Y-77838513D01*
X154889500Y-78209682D01*
X154921849Y-78579430D01*
X154925165Y-78598234D01*
X154986301Y-78944951D01*
X154988966Y-78954897D01*
X155082362Y-79303459D01*
X155209306Y-79652238D01*
X155366164Y-79988620D01*
X155366172Y-79988636D01*
X155377025Y-80007434D01*
X155551750Y-80310066D01*
X155551754Y-80310072D01*
X155551761Y-80310083D01*
X155764639Y-80614104D01*
X155797214Y-80652925D01*
X156003217Y-80898430D01*
X156265668Y-81160881D01*
X156358084Y-81238427D01*
X156549993Y-81399458D01*
X156854014Y-81612336D01*
X156854021Y-81612340D01*
X156854032Y-81612348D01*
X157175468Y-81797929D01*
X157215802Y-81816737D01*
X157511859Y-81954791D01*
X157772566Y-82049680D01*
X157860632Y-82081733D01*
X157860633Y-82081733D01*
X157860638Y-82081735D01*
X157973267Y-82111913D01*
X158219147Y-82177797D01*
X158584670Y-82242249D01*
X158954417Y-82274597D01*
X158954418Y-82274598D01*
X158954419Y-82274598D01*
X159325582Y-82274598D01*
X159325582Y-82274597D01*
X159695330Y-82242249D01*
X160060853Y-82177797D01*
X160419368Y-82081733D01*
X160740813Y-81964737D01*
X160768140Y-81954791D01*
X160768141Y-81954790D01*
X160768145Y-81954789D01*
X161104532Y-81797929D01*
X161425968Y-81612348D01*
X161730005Y-81399459D01*
X162014332Y-81160881D01*
X162276783Y-80898430D01*
X162515361Y-80614103D01*
X162728250Y-80310066D01*
X162913831Y-79988630D01*
X163070691Y-79652243D01*
X163197635Y-79303466D01*
X163293699Y-78944951D01*
X163358151Y-78579428D01*
X163390500Y-78209679D01*
X163390500Y-77848459D01*
X183839500Y-77848459D01*
X183839500Y-78219628D01*
X183870979Y-78579428D01*
X183871849Y-78589374D01*
X183936301Y-78954897D01*
X183938676Y-78963762D01*
X184032362Y-79313405D01*
X184159306Y-79662184D01*
X184316164Y-79998566D01*
X184316172Y-79998582D01*
X184436115Y-80206329D01*
X184501750Y-80320012D01*
X184501754Y-80320018D01*
X184501761Y-80320029D01*
X184714639Y-80624050D01*
X184871750Y-80811287D01*
X184953217Y-80908376D01*
X185215668Y-81170827D01*
X185244499Y-81195019D01*
X185499993Y-81409404D01*
X185804014Y-81622282D01*
X185804021Y-81622286D01*
X185804032Y-81622294D01*
X186125468Y-81807875D01*
X186144464Y-81816733D01*
X186461859Y-81964737D01*
X186722566Y-82059626D01*
X186810632Y-82091679D01*
X186810633Y-82091679D01*
X186810638Y-82091681D01*
X186923267Y-82121859D01*
X187169147Y-82187743D01*
X187534670Y-82252195D01*
X187904417Y-82284543D01*
X187904418Y-82284544D01*
X187904419Y-82284544D01*
X188275582Y-82284544D01*
X188275582Y-82284543D01*
X188645330Y-82252195D01*
X189010853Y-82187743D01*
X189369368Y-82091679D01*
X189631821Y-81996154D01*
X189718140Y-81964737D01*
X189718141Y-81964736D01*
X189718145Y-81964735D01*
X190054532Y-81807875D01*
X190375968Y-81622294D01*
X190680005Y-81409405D01*
X190964332Y-81170827D01*
X191226783Y-80908376D01*
X191465361Y-80624049D01*
X191678250Y-80320012D01*
X191863831Y-79998576D01*
X192020691Y-79662189D01*
X192147635Y-79313412D01*
X192243699Y-78954897D01*
X192308151Y-78589374D01*
X192340500Y-78219625D01*
X192340500Y-77857317D01*
X212799500Y-77857317D01*
X212799500Y-78228486D01*
X212831849Y-78598234D01*
X212896300Y-78963749D01*
X212896303Y-78963762D01*
X212992362Y-79322263D01*
X213119306Y-79671042D01*
X213272038Y-79998576D01*
X213276169Y-80007434D01*
X213461750Y-80328870D01*
X213461754Y-80328876D01*
X213461761Y-80328887D01*
X213674639Y-80632908D01*
X213824317Y-80811287D01*
X213913217Y-80917234D01*
X214175668Y-81179685D01*
X214268084Y-81257231D01*
X214459993Y-81418262D01*
X214764014Y-81631140D01*
X214764021Y-81631144D01*
X214764032Y-81631152D01*
X215085468Y-81816733D01*
X215085477Y-81816737D01*
X215421859Y-81973595D01*
X215682566Y-82068484D01*
X215770632Y-82100537D01*
X215770633Y-82100537D01*
X215770638Y-82100539D01*
X215883267Y-82130717D01*
X216129147Y-82196601D01*
X216494670Y-82261053D01*
X216864417Y-82293401D01*
X216864418Y-82293402D01*
X216864419Y-82293402D01*
X217235582Y-82293402D01*
X217235582Y-82293401D01*
X217605330Y-82261053D01*
X217970853Y-82196601D01*
X218329368Y-82100537D01*
X218678145Y-81973593D01*
X219014532Y-81816733D01*
X219335968Y-81631152D01*
X219640005Y-81418263D01*
X219924332Y-81179685D01*
X220186783Y-80917234D01*
X220425361Y-80632907D01*
X220638250Y-80328870D01*
X220823831Y-80007434D01*
X220980691Y-79671047D01*
X221107635Y-79322270D01*
X221110009Y-79313412D01*
X221157110Y-79137626D01*
X221203699Y-78963755D01*
X221268151Y-78598232D01*
X221300500Y-78228483D01*
X221300500Y-77857321D01*
X221268151Y-77487572D01*
X221203699Y-77122049D01*
X221107635Y-76763534D01*
X221060765Y-76634758D01*
X220980693Y-76414761D01*
X220823835Y-76078379D01*
X220823827Y-76078363D01*
X220812177Y-76058185D01*
X220638250Y-75756934D01*
X220638242Y-75756923D01*
X220638238Y-75756916D01*
X220425360Y-75452895D01*
X220186780Y-75168567D01*
X219924334Y-74906121D01*
X219913777Y-74897263D01*
X219831916Y-74828573D01*
X219640006Y-74667541D01*
X219335985Y-74454663D01*
X219335974Y-74454656D01*
X219335968Y-74454652D01*
X219240470Y-74399516D01*
X219014538Y-74269074D01*
X219014522Y-74269066D01*
X218678140Y-74112208D01*
X218329361Y-73985264D01*
X217970860Y-73889205D01*
X217970863Y-73889205D01*
X217970853Y-73889203D01*
X217919246Y-73880103D01*
X217605332Y-73824751D01*
X217235584Y-73792402D01*
X217235581Y-73792402D01*
X216864419Y-73792402D01*
X216864415Y-73792402D01*
X216494667Y-73824751D01*
X216129152Y-73889202D01*
X216129149Y-73889202D01*
X216129147Y-73889203D01*
X216129142Y-73889204D01*
X216129139Y-73889205D01*
X215770638Y-73985264D01*
X215421859Y-74112208D01*
X215085477Y-74269066D01*
X215085461Y-74269074D01*
X214764040Y-74454647D01*
X214764014Y-74454663D01*
X214459993Y-74667541D01*
X214175665Y-74906121D01*
X213913219Y-75168567D01*
X213674639Y-75452895D01*
X213461761Y-75756916D01*
X213461745Y-75756942D01*
X213276172Y-76078363D01*
X213276164Y-76078379D01*
X213119306Y-76414761D01*
X212992362Y-76763540D01*
X212896303Y-77122041D01*
X212896300Y-77122054D01*
X212831849Y-77487569D01*
X212799500Y-77857317D01*
X192340500Y-77857317D01*
X192340500Y-77848463D01*
X192308151Y-77478714D01*
X192243699Y-77113191D01*
X192150010Y-76763540D01*
X192147637Y-76754682D01*
X192020693Y-76405903D01*
X191867966Y-76078379D01*
X191863831Y-76069512D01*
X191678250Y-75748076D01*
X191678242Y-75748065D01*
X191678238Y-75748058D01*
X191465360Y-75444037D01*
X191291559Y-75236909D01*
X191226783Y-75159712D01*
X190964332Y-74897261D01*
X190845222Y-74797316D01*
X190680006Y-74658683D01*
X190375985Y-74445805D01*
X190375974Y-74445798D01*
X190375968Y-74445794D01*
X190069875Y-74269071D01*
X190054538Y-74260216D01*
X190054522Y-74260208D01*
X189718140Y-74103350D01*
X189369361Y-73976406D01*
X189010860Y-73880347D01*
X189010863Y-73880347D01*
X189010853Y-73880345D01*
X188954441Y-73870398D01*
X188645332Y-73815893D01*
X188275584Y-73783544D01*
X188275581Y-73783544D01*
X187904419Y-73783544D01*
X187904415Y-73783544D01*
X187534667Y-73815893D01*
X187169152Y-73880344D01*
X187169149Y-73880344D01*
X187169147Y-73880345D01*
X187169142Y-73880346D01*
X187169139Y-73880347D01*
X186810638Y-73976406D01*
X186461859Y-74103350D01*
X186125477Y-74260208D01*
X186125461Y-74260216D01*
X185804040Y-74445789D01*
X185804014Y-74445805D01*
X185499993Y-74658683D01*
X185215665Y-74897263D01*
X184953219Y-75159709D01*
X184714639Y-75444037D01*
X184501761Y-75748058D01*
X184501745Y-75748084D01*
X184316172Y-76069505D01*
X184316164Y-76069521D01*
X184159306Y-76405903D01*
X184032362Y-76754682D01*
X183936303Y-77113183D01*
X183936300Y-77113196D01*
X183871849Y-77478711D01*
X183839500Y-77848459D01*
X163390500Y-77848459D01*
X163390500Y-77838517D01*
X163358151Y-77468768D01*
X163293699Y-77103245D01*
X163197635Y-76744730D01*
X163077537Y-76414761D01*
X163070693Y-76395957D01*
X162927264Y-76088373D01*
X162913831Y-76059566D01*
X162728250Y-75738130D01*
X162728242Y-75738119D01*
X162728238Y-75738112D01*
X162515360Y-75434091D01*
X162292561Y-75168570D01*
X162276783Y-75149766D01*
X162014332Y-74887315D01*
X161907075Y-74797316D01*
X161730006Y-74648737D01*
X161425985Y-74435859D01*
X161425974Y-74435852D01*
X161425968Y-74435848D01*
X161137102Y-74269071D01*
X161104538Y-74250270D01*
X161104522Y-74250262D01*
X160768140Y-74093404D01*
X160419361Y-73966460D01*
X160060860Y-73870401D01*
X160060863Y-73870401D01*
X160060853Y-73870399D01*
X160009246Y-73861299D01*
X159695332Y-73805947D01*
X159325584Y-73773598D01*
X159325581Y-73773598D01*
X158954419Y-73773598D01*
X158954415Y-73773598D01*
X158584667Y-73805947D01*
X158219152Y-73870398D01*
X158219149Y-73870398D01*
X158219147Y-73870399D01*
X158219142Y-73870400D01*
X158219139Y-73870401D01*
X157860638Y-73966460D01*
X157511859Y-74093404D01*
X157175477Y-74250262D01*
X157175461Y-74250270D01*
X156854040Y-74435843D01*
X156854014Y-74435859D01*
X156549993Y-74648737D01*
X156265665Y-74887317D01*
X156003219Y-75149763D01*
X155764639Y-75434091D01*
X155551761Y-75738112D01*
X155551745Y-75738138D01*
X155366172Y-76059559D01*
X155366164Y-76059575D01*
X155209306Y-76395957D01*
X155082362Y-76744736D01*
X154986303Y-77103237D01*
X154986300Y-77103250D01*
X154921849Y-77468765D01*
X154889500Y-77838513D01*
X144010502Y-77838513D01*
X144010502Y-49349034D01*
X151769500Y-49349034D01*
X151769500Y-49697283D01*
X151808489Y-50043317D01*
X151808490Y-50043326D01*
X151808491Y-50043330D01*
X151813288Y-50064347D01*
X151885982Y-50382843D01*
X151885985Y-50382851D01*
X152000999Y-50711541D01*
X152152092Y-51025289D01*
X152337371Y-51320158D01*
X152337372Y-51320160D01*
X152554487Y-51592415D01*
X152800743Y-51838671D01*
X153072998Y-52055786D01*
X153073001Y-52055787D01*
X153073003Y-52055789D01*
X153367867Y-52241065D01*
X153681621Y-52392161D01*
X153925544Y-52477513D01*
X154010307Y-52507173D01*
X154010315Y-52507176D01*
X154010318Y-52507176D01*
X154010319Y-52507177D01*
X154349829Y-52584668D01*
X154695876Y-52623658D01*
X154695877Y-52623659D01*
X154695880Y-52623659D01*
X155044123Y-52623659D01*
X155044123Y-52623658D01*
X155390171Y-52584668D01*
X155729681Y-52507177D01*
X156058379Y-52392161D01*
X156372133Y-52241065D01*
X156666997Y-52055789D01*
X156695169Y-52033323D01*
X156939256Y-51838671D01*
X156939258Y-51838668D01*
X156939263Y-51838665D01*
X157185506Y-51592422D01*
X157193535Y-51582355D01*
X157402627Y-51320160D01*
X157402628Y-51320158D01*
X157402630Y-51320156D01*
X157587906Y-51025292D01*
X157739002Y-50711538D01*
X157854018Y-50382840D01*
X157931509Y-50043330D01*
X157970500Y-49697279D01*
X157970500Y-49358537D01*
X165419500Y-49358537D01*
X165419500Y-49389663D01*
X165419500Y-49712299D01*
X165429923Y-49818125D01*
X165454173Y-50064347D01*
X165454176Y-50064364D01*
X165523185Y-50411302D01*
X165523188Y-50411313D01*
X165625882Y-50749854D01*
X165761262Y-51076689D01*
X165761264Y-51076694D01*
X165928017Y-51388665D01*
X165928028Y-51388683D01*
X166124558Y-51682811D01*
X166124568Y-51682825D01*
X166348992Y-51956287D01*
X166599130Y-52206425D01*
X166599135Y-52206429D01*
X166599136Y-52206430D01*
X166872598Y-52430854D01*
X167166741Y-52627394D01*
X167166750Y-52627399D01*
X167166752Y-52627400D01*
X167478723Y-52794153D01*
X167478725Y-52794153D01*
X167478731Y-52794157D01*
X167805565Y-52929536D01*
X168144095Y-53032227D01*
X168144101Y-53032228D01*
X168144104Y-53032229D01*
X168144115Y-53032232D01*
X168361674Y-53075506D01*
X168491060Y-53101243D01*
X168843119Y-53135918D01*
X168843122Y-53135918D01*
X169196878Y-53135918D01*
X169196881Y-53135918D01*
X169548940Y-53101243D01*
X169720679Y-53067081D01*
X169895884Y-53032232D01*
X169895895Y-53032229D01*
X169895895Y-53032228D01*
X169895905Y-53032227D01*
X170234435Y-52929536D01*
X170561269Y-52794157D01*
X170873259Y-52627394D01*
X171167402Y-52430854D01*
X171440864Y-52206430D01*
X171691012Y-51956282D01*
X171915436Y-51682820D01*
X172111976Y-51388677D01*
X172278739Y-51076687D01*
X172414118Y-50749853D01*
X172516809Y-50411323D01*
X172516811Y-50411313D01*
X172516814Y-50411302D01*
X172559230Y-50198058D01*
X172585825Y-50064358D01*
X172620500Y-49712299D01*
X172620500Y-49358537D01*
X172620094Y-49354415D01*
X183849500Y-49354415D01*
X183849500Y-49725584D01*
X183881849Y-50095332D01*
X183946300Y-50460847D01*
X183946303Y-50460860D01*
X184042362Y-50819361D01*
X184169306Y-51168140D01*
X184326164Y-51504522D01*
X184326172Y-51504538D01*
X184429106Y-51682825D01*
X184511750Y-51825968D01*
X184511754Y-51825974D01*
X184511761Y-51825985D01*
X184724639Y-52130006D01*
X184817829Y-52241065D01*
X184963217Y-52414332D01*
X185225668Y-52676783D01*
X185318084Y-52754329D01*
X185509993Y-52915360D01*
X185814014Y-53128238D01*
X185814021Y-53128242D01*
X185814032Y-53128250D01*
X186135468Y-53313831D01*
X186135477Y-53313835D01*
X186471859Y-53470693D01*
X186732566Y-53565582D01*
X186820632Y-53597635D01*
X186820633Y-53597635D01*
X186820638Y-53597637D01*
X186933267Y-53627815D01*
X187179147Y-53693699D01*
X187544670Y-53758151D01*
X187914417Y-53790499D01*
X187914418Y-53790500D01*
X187914419Y-53790500D01*
X188285582Y-53790500D01*
X188285582Y-53790499D01*
X188655330Y-53758151D01*
X189020853Y-53693699D01*
X189379368Y-53597635D01*
X189728145Y-53470691D01*
X190064532Y-53313831D01*
X190385968Y-53128250D01*
X190690005Y-52915361D01*
X190974332Y-52676783D01*
X191236783Y-52414332D01*
X191475361Y-52130005D01*
X191688250Y-51825968D01*
X191873831Y-51504532D01*
X192030691Y-51168145D01*
X192157635Y-50819368D01*
X192253699Y-50460853D01*
X192318151Y-50095330D01*
X192350500Y-49725581D01*
X192350500Y-49354419D01*
X192350329Y-49352468D01*
X192350328Y-49352458D01*
X203559500Y-49352458D01*
X203559500Y-49383584D01*
X203559500Y-49706220D01*
X203569923Y-49812046D01*
X203594173Y-50058268D01*
X203594176Y-50058285D01*
X203663185Y-50405223D01*
X203663188Y-50405234D01*
X203765882Y-50743775D01*
X203901262Y-51070610D01*
X203901264Y-51070615D01*
X204068017Y-51382586D01*
X204068028Y-51382604D01*
X204264558Y-51676732D01*
X204264568Y-51676746D01*
X204488992Y-51950208D01*
X204739130Y-52200346D01*
X204739135Y-52200350D01*
X204739136Y-52200351D01*
X205012598Y-52424775D01*
X205306741Y-52621315D01*
X205306750Y-52621320D01*
X205306752Y-52621321D01*
X205618723Y-52788074D01*
X205618725Y-52788074D01*
X205618731Y-52788078D01*
X205945565Y-52923457D01*
X206284095Y-53026148D01*
X206284101Y-53026149D01*
X206284104Y-53026150D01*
X206284115Y-53026153D01*
X206501674Y-53069427D01*
X206631060Y-53095164D01*
X206983119Y-53129839D01*
X206983122Y-53129839D01*
X207336878Y-53129839D01*
X207336881Y-53129839D01*
X207688940Y-53095164D01*
X207860679Y-53061002D01*
X208035884Y-53026153D01*
X208035895Y-53026150D01*
X208035895Y-53026149D01*
X208035905Y-53026148D01*
X208374435Y-52923457D01*
X208701269Y-52788078D01*
X209013259Y-52621315D01*
X209307402Y-52424775D01*
X209580864Y-52200351D01*
X209831012Y-51950203D01*
X210055436Y-51676741D01*
X210251976Y-51382598D01*
X210418739Y-51070608D01*
X210554118Y-50743774D01*
X210656809Y-50405244D01*
X210656811Y-50405234D01*
X210656814Y-50405223D01*
X210698028Y-50198021D01*
X210725825Y-50058279D01*
X210760500Y-49706220D01*
X210760500Y-49352458D01*
X210760166Y-49349071D01*
X218181970Y-49349071D01*
X218181970Y-49697320D01*
X218220959Y-50043354D01*
X218220960Y-50043363D01*
X218220961Y-50043367D01*
X218232821Y-50095330D01*
X218298452Y-50382880D01*
X218298455Y-50382888D01*
X218413469Y-50711578D01*
X218564562Y-51025326D01*
X218749841Y-51320195D01*
X218749842Y-51320197D01*
X218966957Y-51592452D01*
X219213213Y-51838708D01*
X219485468Y-52055823D01*
X219485471Y-52055824D01*
X219485473Y-52055826D01*
X219780337Y-52241102D01*
X220094091Y-52392198D01*
X220337908Y-52477513D01*
X220422777Y-52507210D01*
X220422785Y-52507213D01*
X220422788Y-52507213D01*
X220422789Y-52507214D01*
X220762299Y-52584705D01*
X221108346Y-52623695D01*
X221108347Y-52623696D01*
X221108350Y-52623696D01*
X221456593Y-52623696D01*
X221456593Y-52623695D01*
X221802641Y-52584705D01*
X222142151Y-52507214D01*
X222470849Y-52392198D01*
X222784603Y-52241102D01*
X223079467Y-52055826D01*
X223079471Y-52055823D01*
X223351726Y-51838708D01*
X223351728Y-51838705D01*
X223351733Y-51838702D01*
X223597976Y-51592459D01*
X223598012Y-51592415D01*
X223815097Y-51320197D01*
X223815098Y-51320195D01*
X223815100Y-51320193D01*
X224000376Y-51025329D01*
X224151472Y-50711575D01*
X224266488Y-50382877D01*
X224343979Y-50043367D01*
X224382970Y-49697316D01*
X224382970Y-49349076D01*
X224343979Y-49003025D01*
X224266488Y-48663515D01*
X224151472Y-48334817D01*
X224000376Y-48021063D01*
X223815100Y-47726199D01*
X223815098Y-47726196D01*
X223815097Y-47726194D01*
X223597982Y-47453939D01*
X223351726Y-47207683D01*
X223079471Y-46990568D01*
X223079469Y-46990567D01*
X222784600Y-46805288D01*
X222470852Y-46654195D01*
X222142162Y-46539181D01*
X222142154Y-46539178D01*
X221884860Y-46480453D01*
X221802641Y-46461687D01*
X221802637Y-46461686D01*
X221802628Y-46461685D01*
X221456594Y-46422696D01*
X221456590Y-46422696D01*
X221108350Y-46422696D01*
X221108345Y-46422696D01*
X220762311Y-46461685D01*
X220762299Y-46461687D01*
X220422785Y-46539178D01*
X220422777Y-46539181D01*
X220094087Y-46654195D01*
X219780339Y-46805288D01*
X219485470Y-46990567D01*
X219485468Y-46990568D01*
X219213213Y-47207683D01*
X218966957Y-47453939D01*
X218749842Y-47726194D01*
X218749841Y-47726196D01*
X218564562Y-48021065D01*
X218413469Y-48334813D01*
X218298455Y-48663503D01*
X218298452Y-48663511D01*
X218220961Y-49003025D01*
X218220959Y-49003037D01*
X218181970Y-49349071D01*
X210760166Y-49349071D01*
X210725825Y-49000399D01*
X210689103Y-48815784D01*
X210656814Y-48653454D01*
X210656811Y-48653443D01*
X210656810Y-48653440D01*
X210656809Y-48653434D01*
X210554118Y-48314904D01*
X210418739Y-47988070D01*
X210395561Y-47944708D01*
X210251982Y-47676091D01*
X210251981Y-47676089D01*
X210251976Y-47676080D01*
X210055436Y-47381937D01*
X209831012Y-47108475D01*
X209831011Y-47108474D01*
X209831007Y-47108469D01*
X209580869Y-46858331D01*
X209307407Y-46633907D01*
X209307406Y-46633906D01*
X209307402Y-46633903D01*
X209013259Y-46437363D01*
X209013254Y-46437360D01*
X209013247Y-46437356D01*
X208701276Y-46270603D01*
X208701271Y-46270601D01*
X208374436Y-46135221D01*
X208035895Y-46032527D01*
X208035884Y-46032524D01*
X207688946Y-45963515D01*
X207688929Y-45963512D01*
X207422700Y-45937291D01*
X207336881Y-45928839D01*
X206983119Y-45928839D01*
X206903748Y-45936656D01*
X206631070Y-45963512D01*
X206631053Y-45963515D01*
X206284115Y-46032524D01*
X206284104Y-46032527D01*
X205945563Y-46135221D01*
X205618728Y-46270601D01*
X205618723Y-46270603D01*
X205306752Y-46437356D01*
X205306734Y-46437367D01*
X205012606Y-46633897D01*
X205012592Y-46633907D01*
X204739130Y-46858331D01*
X204488992Y-47108469D01*
X204264568Y-47381931D01*
X204264558Y-47381945D01*
X204068028Y-47676073D01*
X204068017Y-47676091D01*
X203901264Y-47988062D01*
X203901262Y-47988067D01*
X203765882Y-48314902D01*
X203663188Y-48653443D01*
X203663185Y-48653454D01*
X203594176Y-49000392D01*
X203594173Y-49000409D01*
X203583025Y-49113604D01*
X203559500Y-49352458D01*
X192350328Y-49352458D01*
X192329428Y-49113567D01*
X192318151Y-48984670D01*
X192253699Y-48619147D01*
X192173806Y-48320983D01*
X192157637Y-48260638D01*
X192030693Y-47911859D01*
X191944099Y-47726159D01*
X191873831Y-47575468D01*
X191688250Y-47254032D01*
X191688242Y-47254021D01*
X191688238Y-47254014D01*
X191475360Y-46949993D01*
X191236780Y-46665665D01*
X190974334Y-46403219D01*
X190956057Y-46387883D01*
X190881916Y-46325671D01*
X190690006Y-46164639D01*
X190385985Y-45951761D01*
X190385974Y-45951754D01*
X190385968Y-45951750D01*
X190242313Y-45868811D01*
X190064538Y-45766172D01*
X190064522Y-45766164D01*
X189728140Y-45609306D01*
X189379361Y-45482362D01*
X189020860Y-45386303D01*
X189020863Y-45386303D01*
X189020853Y-45386301D01*
X188969246Y-45377201D01*
X188655332Y-45321849D01*
X188285584Y-45289500D01*
X188285581Y-45289500D01*
X187914419Y-45289500D01*
X187914415Y-45289500D01*
X187544667Y-45321849D01*
X187179152Y-45386300D01*
X187179149Y-45386300D01*
X187179147Y-45386301D01*
X187179142Y-45386302D01*
X187179139Y-45386303D01*
X186820638Y-45482362D01*
X186471859Y-45609306D01*
X186135477Y-45766164D01*
X186135461Y-45766172D01*
X185814040Y-45951745D01*
X185814014Y-45951761D01*
X185509993Y-46164639D01*
X185225665Y-46403219D01*
X184963219Y-46665665D01*
X184724639Y-46949993D01*
X184511761Y-47254014D01*
X184511745Y-47254040D01*
X184326172Y-47575461D01*
X184326164Y-47575477D01*
X184169306Y-47911859D01*
X184042362Y-48260638D01*
X183946303Y-48619139D01*
X183946300Y-48619152D01*
X183881849Y-48984667D01*
X183849500Y-49354415D01*
X172620094Y-49354415D01*
X172585825Y-49006478D01*
X172554361Y-48848297D01*
X172516814Y-48659533D01*
X172516811Y-48659522D01*
X172516810Y-48659519D01*
X172516809Y-48659513D01*
X172414118Y-48320983D01*
X172278739Y-47994149D01*
X172275485Y-47988062D01*
X172111982Y-47682170D01*
X172111981Y-47682168D01*
X172111976Y-47682159D01*
X171915436Y-47388016D01*
X171691012Y-47114554D01*
X171691011Y-47114553D01*
X171691007Y-47114548D01*
X171440869Y-46864410D01*
X171167407Y-46639986D01*
X171167406Y-46639985D01*
X171167402Y-46639982D01*
X170873259Y-46443442D01*
X170873254Y-46443439D01*
X170873247Y-46443435D01*
X170561276Y-46276682D01*
X170561271Y-46276680D01*
X170234436Y-46141300D01*
X169895895Y-46038606D01*
X169895884Y-46038603D01*
X169548946Y-45969594D01*
X169548929Y-45969591D01*
X169282700Y-45943370D01*
X169196881Y-45934918D01*
X168843119Y-45934918D01*
X168763748Y-45942735D01*
X168491070Y-45969591D01*
X168491053Y-45969594D01*
X168144115Y-46038603D01*
X168144104Y-46038606D01*
X167805563Y-46141300D01*
X167478728Y-46276680D01*
X167478723Y-46276682D01*
X167166752Y-46443435D01*
X167166734Y-46443446D01*
X166872606Y-46639976D01*
X166872592Y-46639986D01*
X166599130Y-46864410D01*
X166348992Y-47114548D01*
X166124568Y-47388010D01*
X166124558Y-47388024D01*
X165928028Y-47682152D01*
X165928017Y-47682170D01*
X165761264Y-47994141D01*
X165761262Y-47994146D01*
X165625882Y-48320981D01*
X165523188Y-48659522D01*
X165523185Y-48659533D01*
X165454176Y-49006471D01*
X165454173Y-49006488D01*
X165427317Y-49279166D01*
X165419500Y-49358537D01*
X157970500Y-49358537D01*
X157970500Y-49349039D01*
X157931509Y-49002988D01*
X157854018Y-48663478D01*
X157850510Y-48653454D01*
X157777666Y-48445276D01*
X157739002Y-48334780D01*
X157587906Y-48021026D01*
X157402630Y-47726162D01*
X157402628Y-47726159D01*
X157402627Y-47726157D01*
X157185512Y-47453902D01*
X156939256Y-47207646D01*
X156667001Y-46990531D01*
X156666999Y-46990530D01*
X156372130Y-46805251D01*
X156058382Y-46654158D01*
X155729692Y-46539144D01*
X155729684Y-46539141D01*
X155472552Y-46480453D01*
X155390171Y-46461650D01*
X155390167Y-46461649D01*
X155390158Y-46461648D01*
X155044124Y-46422659D01*
X155044120Y-46422659D01*
X154695880Y-46422659D01*
X154695875Y-46422659D01*
X154349841Y-46461648D01*
X154349829Y-46461650D01*
X154010315Y-46539141D01*
X154010307Y-46539144D01*
X153681617Y-46654158D01*
X153367869Y-46805251D01*
X153073000Y-46990530D01*
X153072998Y-46990531D01*
X152800743Y-47207646D01*
X152554487Y-47453902D01*
X152337372Y-47726157D01*
X152337371Y-47726159D01*
X152152092Y-48021028D01*
X152000999Y-48334776D01*
X151885985Y-48663466D01*
X151885982Y-48663474D01*
X151808491Y-49002988D01*
X151808489Y-49003000D01*
X151769500Y-49349034D01*
X144010502Y-49349034D01*
X144010502Y-45267234D01*
X144498534Y-45267234D01*
X144498534Y-45519157D01*
X144537944Y-45767981D01*
X144615794Y-46007579D01*
X144730166Y-46232044D01*
X144878235Y-46435845D01*
X144878239Y-46435850D01*
X145056379Y-46613990D01*
X145056384Y-46613994D01*
X145127504Y-46665665D01*
X145260189Y-46762066D01*
X145403218Y-46834943D01*
X145484650Y-46876435D01*
X145484652Y-46876435D01*
X145484655Y-46876437D01*
X145724249Y-46954286D01*
X145973072Y-46993696D01*
X145973073Y-46993696D01*
X146224995Y-46993696D01*
X146224996Y-46993696D01*
X146473819Y-46954286D01*
X146713413Y-46876437D01*
X146937879Y-46762066D01*
X147141690Y-46613989D01*
X147319827Y-46435852D01*
X147467904Y-46232041D01*
X147582275Y-46007575D01*
X147660124Y-45767981D01*
X147699534Y-45519158D01*
X147699534Y-45267234D01*
X147660124Y-45018411D01*
X147582275Y-44778817D01*
X147582273Y-44778814D01*
X147582273Y-44778812D01*
X147540781Y-44697380D01*
X147467904Y-44554351D01*
X147327097Y-44360546D01*
X147319832Y-44350546D01*
X147319828Y-44350541D01*
X147141688Y-44172401D01*
X147141683Y-44172397D01*
X146937882Y-44024328D01*
X146937881Y-44024327D01*
X146937879Y-44024326D01*
X146867781Y-43988609D01*
X146713417Y-43909956D01*
X146473819Y-43832106D01*
X146224996Y-43792696D01*
X145973072Y-43792696D01*
X145909935Y-43802696D01*
X145724248Y-43832106D01*
X145484650Y-43909956D01*
X145260185Y-44024328D01*
X145056384Y-44172397D01*
X145056379Y-44172401D01*
X144878239Y-44350541D01*
X144878235Y-44350546D01*
X144730166Y-44554347D01*
X144615794Y-44778812D01*
X144537944Y-45018410D01*
X144498534Y-45267234D01*
X144010502Y-45267234D01*
X144010502Y-41937306D01*
X143976394Y-41810012D01*
X143910502Y-41695884D01*
X143817316Y-41602698D01*
X143760252Y-41569752D01*
X143703189Y-41536806D01*
X143639541Y-41519752D01*
X143575894Y-41502698D01*
X73075894Y-41502698D01*
X72944110Y-41502698D01*
X72816814Y-41536806D01*
X72702688Y-41602698D01*
X72702685Y-41602700D01*
X72609504Y-41695881D01*
X72609502Y-41695884D01*
X72543610Y-41810010D01*
X72509502Y-41937306D01*
X55709753Y-41937306D01*
X55709753Y-37487234D01*
X66405887Y-37487234D01*
X66405887Y-37739157D01*
X66445297Y-37987981D01*
X66523147Y-38227579D01*
X66601800Y-38381943D01*
X66632423Y-38442044D01*
X66637519Y-38452044D01*
X66785588Y-38655845D01*
X66785592Y-38655850D01*
X66963732Y-38833990D01*
X66963737Y-38833994D01*
X67140010Y-38962063D01*
X67167542Y-38982066D01*
X67310571Y-39054943D01*
X67392003Y-39096435D01*
X67392005Y-39096435D01*
X67392008Y-39096437D01*
X67631602Y-39174286D01*
X67880425Y-39213696D01*
X67880426Y-39213696D01*
X68132348Y-39213696D01*
X68132349Y-39213696D01*
X68381172Y-39174286D01*
X68620766Y-39096437D01*
X68845232Y-38982066D01*
X69049043Y-38833989D01*
X69227180Y-38655852D01*
X69375257Y-38452041D01*
X69489628Y-38227575D01*
X69567477Y-37987981D01*
X69606887Y-37739158D01*
X69606887Y-37487234D01*
X69603719Y-37467234D01*
X147608753Y-37467234D01*
X147608753Y-37719157D01*
X147648163Y-37967981D01*
X147726013Y-38207579D01*
X147840385Y-38432044D01*
X147988454Y-38635845D01*
X147988458Y-38635850D01*
X148166598Y-38813990D01*
X148166603Y-38813994D01*
X148344370Y-38943148D01*
X148370408Y-38962066D01*
X148513437Y-39034943D01*
X148594869Y-39076435D01*
X148594871Y-39076435D01*
X148594874Y-39076437D01*
X148834468Y-39154286D01*
X149083291Y-39193696D01*
X149083292Y-39193696D01*
X149335214Y-39193696D01*
X149335215Y-39193696D01*
X149584038Y-39154286D01*
X149823632Y-39076437D01*
X150048098Y-38962066D01*
X150251909Y-38813989D01*
X150430046Y-38635852D01*
X150578123Y-38432041D01*
X150692494Y-38207575D01*
X150770343Y-37967981D01*
X150809753Y-37719158D01*
X150809753Y-37477234D01*
X229420833Y-37477234D01*
X229420833Y-37729157D01*
X229460243Y-37977981D01*
X229538093Y-38217579D01*
X229616746Y-38371943D01*
X229647369Y-38432044D01*
X229652465Y-38442044D01*
X229800534Y-38645845D01*
X229800538Y-38645850D01*
X229978678Y-38823990D01*
X229978683Y-38823994D01*
X230156450Y-38953148D01*
X230182488Y-38972066D01*
X230325517Y-39044943D01*
X230406949Y-39086435D01*
X230406951Y-39086435D01*
X230406954Y-39086437D01*
X230646548Y-39164286D01*
X230895371Y-39203696D01*
X230895372Y-39203696D01*
X231147294Y-39203696D01*
X231147295Y-39203696D01*
X231396118Y-39164286D01*
X231635712Y-39086437D01*
X231860178Y-38972066D01*
X232063989Y-38823989D01*
X232242126Y-38645852D01*
X232390203Y-38442041D01*
X232504574Y-38217575D01*
X232582423Y-37977981D01*
X232621833Y-37729158D01*
X232621833Y-37477234D01*
X232582423Y-37228411D01*
X232504574Y-36988817D01*
X232504572Y-36988814D01*
X232504572Y-36988812D01*
X232463080Y-36907380D01*
X232390203Y-36764351D01*
X232249396Y-36570546D01*
X232242131Y-36560546D01*
X232242127Y-36560541D01*
X232063987Y-36382401D01*
X232063982Y-36382397D01*
X231860181Y-36234328D01*
X231860180Y-36234327D01*
X231860178Y-36234326D01*
X231790080Y-36198609D01*
X231635716Y-36119956D01*
X231396118Y-36042106D01*
X231332981Y-36032106D01*
X231147295Y-36002696D01*
X230895371Y-36002696D01*
X230832234Y-36012696D01*
X230646547Y-36042106D01*
X230406949Y-36119956D01*
X230182484Y-36234328D01*
X229978683Y-36382397D01*
X229978678Y-36382401D01*
X229800538Y-36560541D01*
X229800534Y-36560546D01*
X229652465Y-36764347D01*
X229538093Y-36988812D01*
X229460243Y-37228410D01*
X229420833Y-37477234D01*
X150809753Y-37477234D01*
X150809753Y-37467234D01*
X150770343Y-37218411D01*
X150692494Y-36978817D01*
X150692492Y-36978814D01*
X150692492Y-36978812D01*
X150588311Y-36774347D01*
X150578123Y-36754351D01*
X150559205Y-36728313D01*
X150430051Y-36550546D01*
X150430047Y-36550541D01*
X150251907Y-36372401D01*
X150251902Y-36372397D01*
X150048101Y-36224328D01*
X150048100Y-36224327D01*
X150048098Y-36224326D01*
X149978000Y-36188609D01*
X149823636Y-36109956D01*
X149584038Y-36032106D01*
X149461489Y-36012696D01*
X149335215Y-35992696D01*
X149083291Y-35992696D01*
X149020154Y-36002696D01*
X148834467Y-36032106D01*
X148594869Y-36109956D01*
X148370404Y-36224328D01*
X148166603Y-36372397D01*
X148166598Y-36372401D01*
X147988458Y-36550541D01*
X147988454Y-36550546D01*
X147840385Y-36754347D01*
X147726013Y-36978812D01*
X147648163Y-37218410D01*
X147608753Y-37467234D01*
X69603719Y-37467234D01*
X69584282Y-37344515D01*
X69567477Y-37238410D01*
X69509290Y-37059330D01*
X69489628Y-36998817D01*
X69489626Y-36998814D01*
X69489626Y-36998812D01*
X69448134Y-36917380D01*
X69375257Y-36774351D01*
X69356339Y-36748313D01*
X69227185Y-36570546D01*
X69227181Y-36570541D01*
X69049041Y-36392401D01*
X69049036Y-36392397D01*
X68845235Y-36244328D01*
X68845234Y-36244327D01*
X68845232Y-36244326D01*
X68775134Y-36208609D01*
X68620770Y-36129956D01*
X68381172Y-36052106D01*
X68318035Y-36042106D01*
X68132349Y-36012696D01*
X67880425Y-36012696D01*
X67757876Y-36032106D01*
X67631601Y-36052106D01*
X67392003Y-36129956D01*
X67167538Y-36244328D01*
X66963737Y-36392397D01*
X66963732Y-36392401D01*
X66785592Y-36570541D01*
X66785588Y-36570546D01*
X66637519Y-36774347D01*
X66523147Y-36998812D01*
X66445297Y-37238410D01*
X66405887Y-37487234D01*
X55709753Y-37487234D01*
X55709753Y-28199734D01*
X56608753Y-28199734D01*
X56608753Y-28451657D01*
X56648163Y-28700481D01*
X56726013Y-28940079D01*
X56840385Y-29164544D01*
X56988454Y-29368345D01*
X56988458Y-29368350D01*
X57166598Y-29546490D01*
X57166603Y-29546494D01*
X57344370Y-29675648D01*
X57370408Y-29694566D01*
X57513437Y-29767443D01*
X57594869Y-29808935D01*
X57594871Y-29808935D01*
X57594874Y-29808937D01*
X57834468Y-29886786D01*
X58083291Y-29926196D01*
X58083292Y-29926196D01*
X58335214Y-29926196D01*
X58335215Y-29926196D01*
X58584038Y-29886786D01*
X58823632Y-29808937D01*
X59048098Y-29694566D01*
X59251909Y-29546489D01*
X59430046Y-29368352D01*
X59578123Y-29164541D01*
X59692494Y-28940075D01*
X59770343Y-28700481D01*
X59809753Y-28451658D01*
X59809753Y-28199734D01*
X147608753Y-28199734D01*
X147608753Y-28451657D01*
X147648163Y-28700481D01*
X147726013Y-28940079D01*
X147840385Y-29164544D01*
X147988454Y-29368345D01*
X147988458Y-29368350D01*
X148166598Y-29546490D01*
X148166603Y-29546494D01*
X148344370Y-29675648D01*
X148370408Y-29694566D01*
X148513437Y-29767443D01*
X148594869Y-29808935D01*
X148594871Y-29808935D01*
X148594874Y-29808937D01*
X148834468Y-29886786D01*
X149083291Y-29926196D01*
X149083292Y-29926196D01*
X149335214Y-29926196D01*
X149335215Y-29926196D01*
X149584038Y-29886786D01*
X149823632Y-29808937D01*
X150048098Y-29694566D01*
X150251909Y-29546489D01*
X150430046Y-29368352D01*
X150578123Y-29164541D01*
X150692494Y-28940075D01*
X150770343Y-28700481D01*
X150809753Y-28451658D01*
X150809753Y-28199734D01*
X238608753Y-28199734D01*
X238608753Y-28451657D01*
X238648163Y-28700481D01*
X238726013Y-28940079D01*
X238840385Y-29164544D01*
X238988454Y-29368345D01*
X238988458Y-29368350D01*
X239166598Y-29546490D01*
X239166603Y-29546494D01*
X239344370Y-29675648D01*
X239370408Y-29694566D01*
X239513437Y-29767443D01*
X239594869Y-29808935D01*
X239594871Y-29808935D01*
X239594874Y-29808937D01*
X239834468Y-29886786D01*
X240083291Y-29926196D01*
X240083292Y-29926196D01*
X240335214Y-29926196D01*
X240335215Y-29926196D01*
X240584038Y-29886786D01*
X240823632Y-29808937D01*
X241048098Y-29694566D01*
X241251909Y-29546489D01*
X241430046Y-29368352D01*
X241578123Y-29164541D01*
X241692494Y-28940075D01*
X241770343Y-28700481D01*
X241809753Y-28451658D01*
X241809753Y-28199734D01*
X241770343Y-27950911D01*
X241692494Y-27711317D01*
X241692492Y-27711314D01*
X241692492Y-27711312D01*
X241651000Y-27629880D01*
X241578123Y-27486851D01*
X241559205Y-27460813D01*
X241430051Y-27283046D01*
X241430047Y-27283041D01*
X241251907Y-27104901D01*
X241251902Y-27104897D01*
X241048101Y-26956828D01*
X241048100Y-26956827D01*
X241048098Y-26956826D01*
X240978000Y-26921109D01*
X240823636Y-26842456D01*
X240584038Y-26764606D01*
X240335215Y-26725196D01*
X240083291Y-26725196D01*
X239958879Y-26744901D01*
X239834467Y-26764606D01*
X239594869Y-26842456D01*
X239370404Y-26956828D01*
X239166603Y-27104897D01*
X239166598Y-27104901D01*
X238988458Y-27283041D01*
X238988454Y-27283046D01*
X238840385Y-27486847D01*
X238726013Y-27711312D01*
X238648163Y-27950910D01*
X238608753Y-28199734D01*
X150809753Y-28199734D01*
X150770343Y-27950911D01*
X150692494Y-27711317D01*
X150692492Y-27711314D01*
X150692492Y-27711312D01*
X150651000Y-27629880D01*
X150578123Y-27486851D01*
X150559205Y-27460813D01*
X150430051Y-27283046D01*
X150430047Y-27283041D01*
X150251907Y-27104901D01*
X150251902Y-27104897D01*
X150048101Y-26956828D01*
X150048100Y-26956827D01*
X150048098Y-26956826D01*
X149978000Y-26921109D01*
X149823636Y-26842456D01*
X149584038Y-26764606D01*
X149335215Y-26725196D01*
X149083291Y-26725196D01*
X148958879Y-26744901D01*
X148834467Y-26764606D01*
X148594869Y-26842456D01*
X148370404Y-26956828D01*
X148166603Y-27104897D01*
X148166598Y-27104901D01*
X147988458Y-27283041D01*
X147988454Y-27283046D01*
X147840385Y-27486847D01*
X147726013Y-27711312D01*
X147648163Y-27950910D01*
X147608753Y-28199734D01*
X59809753Y-28199734D01*
X59770343Y-27950911D01*
X59692494Y-27711317D01*
X59692492Y-27711314D01*
X59692492Y-27711312D01*
X59651000Y-27629880D01*
X59578123Y-27486851D01*
X59559205Y-27460813D01*
X59430051Y-27283046D01*
X59430047Y-27283041D01*
X59251907Y-27104901D01*
X59251902Y-27104897D01*
X59048101Y-26956828D01*
X59048100Y-26956827D01*
X59048098Y-26956826D01*
X58978000Y-26921109D01*
X58823636Y-26842456D01*
X58584038Y-26764606D01*
X58335215Y-26725196D01*
X58083291Y-26725196D01*
X57958879Y-26744901D01*
X57834467Y-26764606D01*
X57594869Y-26842456D01*
X57370404Y-26956828D01*
X57166603Y-27104897D01*
X57166598Y-27104901D01*
X56988458Y-27283041D01*
X56988454Y-27283046D01*
X56840385Y-27486847D01*
X56726013Y-27711312D01*
X56648163Y-27950910D01*
X56608753Y-28199734D01*
X55709753Y-28199734D01*
X55709753Y-25950196D01*
X55729438Y-25883157D01*
X55782242Y-25837402D01*
X55833753Y-25826196D01*
X242584753Y-25826196D01*
X242651792Y-25845881D01*
G37*
%TD.AperFunction*%
M02*
